if (_typeface_js && _typeface_js.loadFace) _typeface_js.loadFace({"glyphs":{"S":{"x_min":58.265625,"x_max":738.828125,"ha":817,"o":"m 738 272 b 655 468 738 354 709 422 b 474 537 613 504 568 523 l 366 554 b 233 608 315 562 263 581 b 188 722 202 634 188 673 b 397 905 188 831 265 905 b 627 820 501 905 566 876 l 695 888 b 401 997 611 965 527 997 b 84 718 205 997 84 886 b 159 533 84 638 109 577 b 341 458 202 495 265 470 l 456 440 b 586 393 529 429 554 420 b 633 269 617 365 633 320 b 399 86 633 154 544 86 b 130 194 288 86 212 112 l 58 122 b 397 -8 151 29 248 -8 b 738 272 602 -8 738 98 "},"/":{"x_min":0,"x_max":494.4375,"ha":493,"o":"m 494 1091 l 395 1091 l 0 -102 l 98 -102 l 494 1091 "},"K":{"x_min":143.0625,"x_max":883.328125,"ha":903,"o":"m 883 0 l 527 606 l 838 988 l 709 988 l 248 420 l 248 988 l 143 988 l 143 0 l 248 0 l 248 276 l 456 526 l 758 0 l 883 0 "},"7":{"x_min":63.296875,"x_max":649.40625,"ha":697,"o":"m 649 740 l 649 829 l 63 829 l 63 584 l 161 584 l 161 740 l 542 740 l 139 -170 l 245 -170 l 649 740 "},"d":{"x_min":88.890625,"x_max":631.9375,"ha":757,"o":"m 631 0 l 631 989 l 531 989 l 531 604 b 338 691 476 675 413 691 b 172 632 269 691 208 668 b 88 341 102 562 88 448 b 172 51 88 234 102 121 b 338 -8 208 15 269 -8 b 533 82 413 -8 477 9 l 533 0 l 631 0 m 531 341 b 361 80 531 208 509 80 b 188 341 212 80 188 208 b 361 603 188 475 212 603 b 531 341 509 603 531 475 "},",":{"x_min":122.21875,"x_max":244.4375,"ha":367,"o":"m 244 -90 l 244 122 l 122 122 l 122 -200 l 244 -90 "},"Y":{"x_min":11.109375,"x_max":702.78125,"ha":714,"o":"m 702 988 l 588 988 l 358 515 l 125 988 l 11 988 l 305 408 l 305 0 l 411 0 l 411 408 l 702 988 "},"E":{"x_min":143.0625,"x_max":756.953125,"ha":833,"o":"m 756 0 l 756 94 l 248 94 l 248 451 l 681 451 l 681 545 l 248 545 l 248 894 l 756 894 l 756 988 l 143 988 l 143 0 l 756 0 "},"y":{"x_min":15.28125,"x_max":605.5625,"ha":621,"o":"m 605 683 l 497 683 l 311 134 l 123 683 l 15 683 l 261 13 l 212 -119 b 100 -204 190 -181 169 -204 l 69 -204 l 69 -293 l 112 -293 b 245 -245 161 -293 209 -280 b 294 -165 265 -227 280 -202 l 605 683 "},"\"":{"x_min":122.21875,"x_max":465.28125,"ha":588,"o":"m 465 752 l 465 988 l 355 988 l 355 752 l 465 752 m 231 752 l 231 988 l 122 988 l 122 752 l 231 752 "},"‹":{"x_min":55.5625,"x_max":347.21875,"ha":456,"o":"m 347 80 l 347 204 l 180 372 l 347 538 l 347 663 l 55 372 l 347 80 "},"„":{"x_min":122.21875,"x_max":480.5625,"ha":603,"o":"m 480 0 l 480 116 l 358 116 l 358 -109 l 480 0 m 243 0 l 243 116 l 122 116 l 122 -109 l 243 0 "},"g":{"x_min":89,"x_max":629.28125,"ha":754,"o":"m 629 -21 l 629 683 l 530 683 l 530 603 b 339 691 475 675 414 691 b 172 632 269 691 208 668 b 89 347 104 563 89 458 b 172 61 89 235 104 130 b 337 0 208 25 268 0 b 529 89 411 0 473 18 l 529 -17 b 341 -227 529 -134 473 -227 b 177 -159 262 -227 227 -203 l 112 -222 b 344 -314 184 -288 241 -314 b 629 -21 523 -314 629 -190 m 529 347 b 359 91 529 219 508 91 b 189 347 211 91 189 219 b 359 603 189 475 211 603 b 529 347 508 603 529 475 "},"–":{"x_min":72.21875,"x_max":652.78125,"ha":725,"o":"m 652 327 l 652 420 l 72 420 l 72 327 l 652 327 "},"ƒ":{"x_min":42,"x_max":518.5,"ha":560,"o":"m 518 905 l 518 991 l 446 991 b 239 808 329 991 257 909 l 192 533 l 42 533 l 42 458 l 178 458 l 43 -305 l 143 -305 l 278 458 l 437 458 l 437 533 l 292 533 l 339 805 b 449 905 350 868 385 905 l 518 905 "},"e":{"x_min":87.5,"x_max":648.609375,"ha":736,"o":"m 648 315 l 648 361 b 368 691 648 563 544 691 b 87 341 194 691 87 562 b 386 -8 87 100 205 -8 b 636 97 502 -8 566 27 l 568 156 b 388 79 513 102 468 79 b 187 315 258 79 187 165 l 648 315 m 548 390 l 187 390 b 208 504 190 445 193 466 b 368 606 234 566 295 606 b 527 504 440 606 501 566 b 548 390 543 466 545 445 "},"J":{"x_min":31.9375,"x_max":566.671875,"ha":696,"o":"m 566 300 l 566 988 l 461 988 l 461 313 b 258 86 461 168 387 86 b 102 151 176 86 138 115 l 31 80 b 258 -8 93 19 163 -8 b 566 300 438 -8 566 109 "},"|":{"x_min":176.390625,"x_max":276.390625,"ha":453,"o":"m 276 -102 l 276 1091 l 176 1091 l 176 -102 l 276 -102 "},"^":{"x_min":100,"x_max":645.828125,"ha":746,"o":"m 645 573 l 419 997 l 327 997 l 100 573 l 202 573 l 373 890 l 543 573 l 645 573 "},"q":{"x_min":88.890625,"x_max":631.9375,"ha":757,"o":"m 631 -305 l 631 683 l 533 683 l 533 603 b 338 691 477 675 413 691 b 172 632 269 691 208 668 b 88 341 102 562 88 448 b 172 51 88 234 102 121 b 338 -8 208 15 269 -8 b 531 80 413 -8 476 9 l 531 -305 l 631 -305 m 531 341 b 361 80 531 208 509 80 b 188 341 212 80 188 208 b 361 603 188 475 212 603 b 531 341 509 603 531 475 "},"b":{"x_min":125,"x_max":668.0625,"ha":757,"o":"m 668 341 b 584 632 668 448 654 562 b 418 691 548 668 487 691 b 225 604 343 691 280 675 l 225 989 l 125 989 l 125 0 l 225 0 l 225 82 b 418 -8 280 9 343 -8 b 584 51 487 -8 548 15 b 668 341 654 121 668 234 m 568 341 b 397 80 568 208 545 80 b 225 341 248 80 225 208 b 397 603 225 475 248 603 b 568 341 545 603 568 475 "},"D":{"x_min":143.0625,"x_max":829.21875,"ha":935,"o":"m 829 505 b 731 897 829 643 834 794 b 481 988 672 956 584 988 l 143 988 l 143 0 l 481 0 b 731 91 584 0 672 31 b 829 505 834 194 829 368 m 723 505 b 658 166 723 384 726 237 b 463 94 606 113 540 94 l 248 94 l 248 894 l 463 894 b 658 822 540 894 606 875 b 723 505 726 751 723 626 "},"z":{"x_min":69.4375,"x_max":565.28125,"ha":638,"o":"m 565 0 l 565 88 l 183 88 l 565 598 l 565 683 l 90 683 l 90 594 l 450 594 l 69 86 l 69 0 l 565 0 "},"w":{"x_min":15.28125,"x_max":990.28125,"ha":1006,"o":"m 990 683 l 881 683 l 726 134 l 545 683 l 459 683 l 280 134 l 123 683 l 15 683 l 231 0 l 325 0 l 502 530 l 681 0 l 775 0 l 990 683 "},"$":{"x_min":58.15625,"x_max":749.8125,"ha":828,"o":"m 749 272 b 665 468 749 354 719 422 b 485 537 623 504 577 522 l 442 544 l 442 904 b 637 820 527 898 584 868 l 705 888 b 447 995 628 956 553 990 l 447 1119 l 363 1119 l 363 995 b 84 718 190 981 84 875 b 160 533 84 638 110 577 b 341 458 199 500 266 465 l 369 455 l 369 87 b 130 194 274 91 203 120 l 58 122 b 363 -8 144 36 233 -2 l 363 -158 l 447 -158 l 447 -5 b 749 272 630 6 749 111 m 369 554 b 233 608 322 561 272 576 b 188 722 202 634 188 673 b 369 904 188 825 253 894 l 369 554 m 644 269 b 442 87 644 162 567 95 l 442 444 b 595 393 501 436 549 433 b 644 269 627 365 644 320 "},"™":{"x_min":50,"x_max":1084.71875,"ha":1165,"o":"m 1084 395 l 1084 988 l 1005 988 l 825 629 l 644 988 l 563 988 l 563 395 l 644 395 l 644 823 l 786 543 l 863 543 l 1005 823 l 1005 395 l 1084 395 m 459 915 l 459 988 l 50 988 l 50 915 l 213 915 l 213 395 l 294 395 l 294 915 l 459 915 "},"\\":{"x_min":0,"x_max":493.0625,"ha":493,"o":"m 493 -102 l 98 1087 l 0 1087 l 394 -102 l 493 -102 "},"’":{"x_min":122.21875,"x_max":243.0625,"ha":365,"o":"m 243 872 l 243 988 l 122 988 l 122 762 l 243 872 "},"~":{"x_min":68.0625,"x_max":680.5625,"ha":749,"o":"m 680 385 l 618 448 b 501 385 563 394 540 385 b 393 419 463 385 431 400 b 247 462 340 442 295 462 b 68 367 184 462 145 445 l 129 305 b 245 367 183 359 206 367 b 354 334 283 367 315 352 b 501 291 406 310 452 291 b 680 385 563 291 602 307 "},"-":{"x_min":105.5625,"x_max":486.109375,"ha":592,"o":"m 486 327 l 486 420 l 105 420 l 105 327 l 486 327 "},"Q":{"x_min":106.046875,"x_max":837.984375,"ha":901,"o":"m 837 15 l 729 123 b 797 494 797 208 797 305 b 704 894 797 704 797 801 b 451 997 638 961 550 997 b 199 894 353 997 265 961 b 106 494 106 801 106 704 b 199 94 106 284 106 187 b 451 -8 265 27 353 -8 b 664 61 531 -8 604 15 l 774 -48 l 837 15 m 692 494 b 651 201 692 336 687 259 l 531 322 l 467 258 l 592 133 b 451 86 551 102 504 86 b 281 156 386 86 324 112 b 211 494 218 220 211 287 b 281 831 211 701 218 768 b 451 902 324 876 386 902 b 622 831 517 902 579 876 b 692 494 685 768 692 701 "},"M":{"x_min":143.0625,"x_max":990.28125,"ha":1133,"o":"m 990 0 l 990 988 l 884 988 l 570 287 l 248 988 l 143 988 l 143 0 l 248 0 l 248 751 l 523 155 l 613 155 l 884 751 l 884 0 l 990 0 "},"C":{"x_min":105.5625,"x_max":729.171875,"ha":815,"o":"m 729 112 l 658 183 b 451 86 597 123 545 86 b 280 155 386 86 323 111 b 211 494 218 219 211 287 b 280 833 211 701 218 769 b 451 902 323 877 386 902 b 658 805 545 902 597 865 l 729 876 b 451 997 652 950 572 997 b 198 894 354 997 265 961 b 105 494 105 801 105 704 b 198 94 105 284 105 187 b 451 -8 265 27 354 -8 b 729 112 572 -8 652 38 "},"[":{"x_min":127.78125,"x_max":373.609375,"ha":435,"o":"m 373 -102 l 373 -13 l 227 -13 l 227 1002 l 373 1002 l 373 1091 l 127 1091 l 127 -102 l 373 -102 "},"L":{"x_min":143.0625,"x_max":754.171875,"ha":796,"o":"m 754 0 l 754 94 l 248 94 l 248 988 l 143 988 l 143 0 l 754 0 "},"!":{"x_min":170.828125,"x_max":311.109375,"ha":439,"o":"m 300 988 l 183 988 l 201 277 l 281 277 l 300 988 m 311 65 b 241 134 311 104 280 134 b 170 65 202 134 170 104 b 241 -4 170 26 202 -4 b 311 65 280 -4 311 26 "}," ":{"x_min":0,"x_max":0,"ha":346},"{":{"x_min":66.390625,"x_max":423.328125,"ha":492,"o":"m 423 -102 l 423 -13 l 391 -13 b 309 4 342 -13 323 -9 b 290 94 294 19 290 44 l 290 355 b 202 494 290 434 255 469 b 290 633 255 519 290 554 l 290 894 b 309 984 290 944 294 969 b 391 1002 323 998 342 1002 l 423 1002 l 423 1091 l 371 1091 b 231 1050 302 1091 260 1079 b 190 912 201 1019 190 984 l 190 647 b 165 563 190 608 181 580 b 102 538 151 550 128 538 l 66 538 l 66 450 l 102 450 b 165 425 128 450 151 438 b 190 341 181 408 190 380 l 190 76 b 231 -61 190 4 201 -30 b 371 -102 260 -90 302 -102 l 423 -102 "},"X":{"x_min":20.828125,"x_max":744.453125,"ha":765,"o":"m 744 0 l 438 506 l 723 988 l 601 988 l 381 598 l 162 988 l 40 988 l 323 506 l 20 0 l 140 0 l 381 415 l 622 0 l 744 0 "},"P":{"x_min":143.0625,"x_max":816.671875,"ha":875,"o":"m 816 698 b 511 988 816 876 690 988 l 143 988 l 143 0 l 248 0 l 248 406 l 511 406 b 816 698 691 406 816 520 m 711 698 b 501 501 711 568 625 501 l 248 501 l 248 894 l 501 894 b 711 698 625 894 711 829 "},"%":{"x_min":90.28125,"x_max":1068.0625,"ha":1157,"o":"m 1068 177 l 1068 323 b 880 511 1068 437 987 511 b 693 323 772 511 693 437 l 693 177 b 880 -9 693 63 772 -9 b 1068 177 987 -9 1068 63 m 852 988 l 769 988 l 305 0 l 388 0 l 852 988 m 465 665 l 465 811 b 277 998 465 925 384 998 b 90 811 169 998 90 925 l 90 665 b 277 479 90 552 169 479 b 465 665 384 479 465 552 m 988 180 b 880 59 988 106 955 59 b 772 180 804 59 772 105 l 772 320 b 880 441 772 395 804 441 b 988 320 955 441 988 394 l 988 180 m 386 668 b 277 548 386 594 352 548 b 169 668 202 548 169 593 l 169 808 b 277 929 169 883 201 929 b 386 808 352 929 386 881 l 386 668 "},"#":{"x_min":106.9375,"x_max":836.109375,"ha":907,"o":"m 836 600 l 836 691 l 715 691 l 762 990 l 661 990 l 613 691 l 393 691 l 441 990 l 337 990 l 290 691 l 150 691 l 150 600 l 277 600 l 245 404 l 106 404 l 106 315 l 230 315 l 180 0 l 283 0 l 331 315 l 554 315 l 504 0 l 606 0 l 656 315 l 794 315 l 794 404 l 670 404 l 702 600 l 836 600 m 600 600 l 568 404 l 347 404 l 379 600 l 600 600 "},"_":{"x_min":0,"x_max":745.828125,"ha":746,"o":"m 745 -229 l 745 -158 l 0 -158 l 0 -229 l 745 -229 "},"+":{"x_min":72.21875,"x_max":652.78125,"ha":725,"o":"m 652 325 l 652 418 l 409 418 l 409 659 l 316 659 l 316 418 l 72 418 l 72 325 l 316 325 l 316 80 l 409 80 l 409 325 l 652 325 "},"‚":{"x_min":122.21875,"x_max":243.0625,"ha":365,"o":"m 243 0 l 243 116 l 122 116 l 122 -109 l 243 0 "},")":{"x_min":86.109375,"x_max":284.71875,"ha":414,"o":"m 284 131 l 284 856 b 256 1000 284 905 281 954 b 156 1119 231 1045 201 1075 l 86 1048 b 162 958 118 1016 144 994 b 181 848 176 930 181 893 l 181 140 b 162 30 181 95 176 58 b 86 -59 144 -5 118 -27 l 156 -130 b 256 -11 201 -86 231 -56 b 284 131 281 34 284 83 "},"'":{"x_min":122.21875,"x_max":231.9375,"ha":354,"o":"m 231 752 l 231 988 l 122 988 l 122 752 l 231 752 "},"}":{"x_min":66.78125,"x_max":423.71875,"ha":492,"o":"m 423 450 l 423 538 l 389 538 b 326 563 362 538 340 550 b 301 647 309 580 301 608 l 301 912 b 259 1050 301 984 290 1019 b 119 1091 230 1079 189 1091 l 66 1091 l 66 1002 l 100 1002 b 180 984 148 1002 166 998 b 201 894 195 969 201 944 l 201 633 b 289 494 201 554 236 519 b 201 355 236 469 201 434 l 201 94 b 180 4 201 44 195 19 b 100 -13 166 -9 148 -13 l 66 -13 l 66 -102 l 119 -102 b 259 -61 189 -102 230 -90 b 301 76 290 -30 301 4 l 301 341 b 326 425 301 380 309 408 b 389 450 340 438 362 450 l 423 450 "},"‰":{"x_min":90.28125,"x_max":1548.609375,"ha":1638,"o":"m 1548 177 l 1548 323 b 1361 511 1548 437 1468 511 b 1173 323 1252 511 1173 437 l 1173 177 b 1361 -9 1173 63 1252 -9 b 1548 177 1468 -9 1548 63 m 1068 177 l 1068 323 b 880 511 1068 437 987 511 b 693 323 772 511 693 437 l 693 177 b 880 -9 693 63 772 -9 b 1068 177 987 -9 1068 63 m 852 988 l 769 988 l 305 0 l 388 0 l 852 988 m 465 665 l 465 811 b 277 998 465 925 384 998 b 90 811 169 998 90 925 l 90 665 b 277 479 90 552 169 479 b 465 665 384 479 465 552 m 1469 180 b 1361 59 1469 106 1436 59 b 1252 180 1284 59 1252 105 l 1252 320 b 1361 441 1252 395 1284 441 b 1469 320 1436 441 1469 394 l 1469 180 m 988 180 b 880 59 988 106 955 59 b 772 180 804 59 772 105 l 772 320 b 880 441 772 395 804 441 b 988 320 955 441 988 394 l 988 180 m 386 668 b 277 548 386 594 352 548 b 169 668 202 548 169 593 l 169 808 b 277 929 169 883 201 929 b 386 808 352 929 386 881 l 386 668 "},"a":{"x_min":70.9375,"x_max":612.609375,"ha":731,"o":"m 612 0 l 612 463 b 339 691 612 612 522 691 b 97 590 227 691 158 669 l 165 527 b 337 605 205 584 250 605 b 512 455 462 605 512 555 l 512 390 l 307 390 b 70 193 154 390 70 312 b 122 54 70 138 89 87 b 315 -8 165 9 220 -8 b 512 65 407 -8 457 9 l 512 0 l 612 0 m 512 241 b 477 123 512 184 501 145 b 325 77 434 81 383 77 b 168 194 216 77 168 115 b 320 315 168 273 218 315 l 512 315 l 512 241 "},"T":{"x_min":41.671875,"x_max":719.453125,"ha":761,"o":"m 719 894 l 719 988 l 41 988 l 41 894 l 327 894 l 327 0 l 433 0 l 433 894 l 719 894 "},"—":{"x_min":105.5625,"x_max":1163.890625,"ha":1269,"o":"m 1163 327 l 1163 422 l 105 422 l 105 327 l 1163 327 "},"=":{"x_min":72.21875,"x_max":652.78125,"ha":725,"o":"m 652 444 l 652 537 l 72 537 l 72 444 l 652 444 m 652 209 l 652 301 l 72 301 l 72 209 l 652 209 "},"N":{"x_min":143.0625,"x_max":873.609375,"ha":1017,"o":"m 873 0 l 873 988 l 768 988 l 768 198 l 243 988 l 143 988 l 143 0 l 248 0 l 248 793 l 773 0 l 873 0 "},"⁄":{"x_min":-144.4375,"x_max":401.390625,"ha":257,"o":"m 401 988 l 318 988 l -144 0 l -61 0 l 401 988 "},"2":{"x_min":56.9375,"x_max":625,"ha":703,"o":"m 625 0 l 625 88 l 188 88 l 472 366 b 600 612 545 438 600 512 b 330 865 600 754 493 865 b 59 608 175 865 59 756 l 159 608 b 330 776 159 711 237 776 b 500 611 430 776 500 704 b 405 425 500 543 463 481 l 56 88 l 56 0 l 625 0 "},"j":{"x_min":-20.828125,"x_max":244.4375,"ha":351,"o":"m 244 940 b 175 1008 244 977 212 1008 b 106 940 137 1008 106 977 b 175 872 106 902 137 872 b 244 940 212 872 244 902 m 225 -123 l 225 683 l 125 683 l 125 -119 b 33 -219 125 -186 102 -219 l -20 -219 l -20 -306 l 51 -306 b 225 -123 170 -306 225 -227 "},"Z":{"x_min":79.171875,"x_max":693.0625,"ha":772,"o":"m 693 0 l 693 94 l 194 94 l 693 900 l 693 988 l 98 988 l 98 894 l 573 894 l 79 100 l 79 0 l 693 0 "},"u":{"x_min":118.0625,"x_max":655.5625,"ha":781,"o":"m 655 0 l 655 683 l 555 683 l 555 262 b 384 80 555 143 487 80 b 218 262 281 80 218 141 l 218 683 l 118 683 l 118 247 b 187 55 118 168 138 102 b 363 -8 229 13 290 -8 b 556 76 440 -8 508 20 l 556 0 l 655 0 "},"1":{"x_min":70.828125,"x_max":355.5625,"ha":518,"o":"m 355 0 l 355 829 l 255 829 l 70 669 l 70 555 l 255 718 l 255 0 l 355 0 "},"›":{"x_min":108.328125,"x_max":400,"ha":456,"o":"m 400 372 l 108 663 l 108 538 l 276 372 l 108 204 l 108 80 l 400 372 "},"k":{"x_min":125,"x_max":698.609375,"ha":744,"o":"m 698 0 l 426 422 l 658 683 l 533 683 l 225 327 l 225 988 l 125 988 l 125 0 l 225 0 l 225 197 l 358 350 l 575 0 l 698 0 "},"<":{"x_min":159.71875,"x_max":1268.0625,"ha":1426,"o":"m 1268 291 l 1268 422 l 762 -84 l 762 1011 l 665 1011 l 665 -84 l 159 422 l 159 291 l 713 -262 l 1268 291 "},"t":{"x_min":55.5625,"x_max":387.5,"ha":461,"o":"m 387 0 l 387 86 l 334 86 b 241 186 270 86 241 123 l 241 602 l 387 602 l 387 679 l 241 679 l 241 893 l 141 893 l 141 679 l 55 679 l 55 602 l 141 602 l 141 183 b 316 0 141 81 200 0 l 387 0 "},"W":{"x_min":22.21875,"x_max":1163.890625,"ha":1186,"o":"m 1163 988 l 1051 988 l 858 191 l 640 988 l 545 988 l 327 191 l 134 988 l 22 988 l 275 0 l 373 0 l 593 791 l 812 0 l 911 0 l 1163 988 "},"v":{"x_min":15.28125,"x_max":605.5625,"ha":621,"o":"m 605 683 l 497 683 l 309 134 l 123 683 l 15 683 l 265 0 l 354 0 l 605 683 "},">":{"x_min":159.71875,"x_max":1268.0625,"ha":1426,"o":"m 1268 326 l 1268 456 l 713 1011 l 159 456 l 159 326 l 665 833 l 665 -262 l 762 -262 l 762 833 l 1268 326 "},"s":{"x_min":59.734375,"x_max":618.078125,"ha":689,"o":"m 618 200 b 416 384 618 327 536 373 l 306 394 b 187 494 220 401 187 436 b 340 606 187 563 240 606 b 522 552 411 606 473 590 l 587 618 b 341 691 526 668 438 691 b 90 491 195 691 90 616 b 294 308 90 379 161 319 l 406 298 b 520 198 486 291 520 258 b 338 77 520 118 451 77 b 126 156 254 77 180 100 l 59 90 b 340 -8 134 18 225 -8 b 618 200 505 -8 618 68 "},"B":{"x_min":143.0625,"x_max":822.21875,"ha":928,"o":"m 822 273 b 661 508 822 391 755 473 b 806 725 744 538 806 620 b 515 988 806 890 687 988 l 143 988 l 143 0 l 527 0 b 822 273 702 0 822 94 m 701 723 b 506 551 701 605 616 551 l 248 551 l 248 894 l 506 894 b 701 723 616 894 701 841 m 716 276 b 518 94 716 165 640 94 l 248 94 l 248 456 l 518 456 b 716 276 640 456 716 387 "},"…":{"x_min":109.71875,"x_max":940.28125,"ha":1051,"o":"m 940 75 b 861 154 940 118 904 154 b 781 75 818 154 781 118 b 861 -4 781 31 818 -4 b 940 75 904 -4 940 31 m 604 75 b 525 154 604 118 568 154 b 445 75 481 154 445 118 b 525 -4 445 31 481 -4 b 604 75 568 -4 604 31 m 268 75 b 188 154 268 118 231 154 b 109 75 145 154 109 118 b 188 -4 109 31 145 -4 b 268 75 231 -4 268 31 "},"?":{"x_min":105.5625,"x_max":626.390625,"ha":690,"o":"m 626 744 b 366 997 626 893 512 997 b 105 743 216 997 105 884 l 205 743 b 366 908 205 830 268 908 b 526 744 459 908 526 837 b 480 626 526 697 506 665 l 368 463 b 325 333 338 422 325 387 l 325 277 l 425 277 l 425 331 b 450 412 425 354 433 387 l 563 576 b 626 744 600 629 626 679 m 443 65 b 373 134 443 104 412 134 b 304 65 334 134 304 104 b 373 -4 304 26 334 -4 b 443 65 412 -4 443 26 "},"H":{"x_min":143.0625,"x_max":823.609375,"ha":967,"o":"m 823 0 l 823 988 l 718 988 l 718 545 l 248 545 l 248 988 l 143 988 l 143 0 l 248 0 l 248 451 l 718 451 l 718 0 l 823 0 "},"c":{"x_min":87.5,"x_max":615.28125,"ha":681,"o":"m 615 93 l 547 158 b 390 80 495 101 455 80 b 231 158 323 80 268 106 b 187 341 200 202 187 255 b 231 525 187 427 200 480 b 390 602 268 576 323 602 b 547 526 455 602 495 583 l 615 590 b 390 691 544 666 484 691 b 87 341 218 691 87 575 b 390 -8 87 108 218 -8 b 615 93 484 -8 544 16 "},"&":{"x_min":106.71875,"x_max":931.71875,"ha":1026,"o":"m 931 0 l 780 181 b 872 484 844 258 870 359 l 772 484 b 716 258 770 373 756 319 l 463 562 b 537 612 487 579 537 612 b 647 788 599 655 647 709 b 431 997 647 906 555 997 b 213 790 305 997 213 908 b 320 575 213 701 272 633 b 106 279 212 502 106 427 b 419 -8 106 106 227 -8 b 710 108 577 -8 670 70 l 799 0 l 931 0 m 548 788 b 459 665 548 731 505 697 b 406 629 459 665 423 640 b 317 791 341 708 317 745 b 431 906 317 858 363 906 b 548 788 498 906 548 855 m 651 180 b 417 84 566 104 491 84 b 209 281 295 84 209 163 b 378 508 209 394 294 450 l 651 180 "},"I":{"x_min":143.0625,"x_max":248.609375,"ha":392,"o":"m 248 0 l 248 988 l 143 988 l 143 0 l 248 0 "},"•":{"x_min":143.0625,"x_max":595.828125,"ha":739,"o":"m 595 463 b 369 690 595 588 494 690 b 143 463 244 690 143 588 b 369 237 143 338 244 237 b 595 463 494 237 595 338 "},"G":{"x_min":106.125,"x_max":797.796875,"ha":896,"o":"m 797 361 l 797 518 l 451 518 l 451 425 l 692 425 l 692 351 b 638 170 692 276 678 218 b 451 86 592 115 524 86 b 281 155 386 86 324 111 b 211 494 218 219 211 287 b 281 831 211 701 218 768 b 451 902 324 876 386 902 b 676 791 553 902 607 861 l 747 862 b 451 997 660 950 582 997 b 199 894 353 997 265 961 b 106 494 106 801 106 704 b 199 94 106 284 106 187 b 451 -8 265 27 354 -8 b 713 105 554 -8 646 33 b 797 361 774 170 797 247 "},"(":{"x_min":127.78125,"x_max":325,"ha":414,"o":"m 325 -62 b 250 27 293 -30 268 -8 b 227 140 236 55 227 94 l 227 848 b 250 961 227 894 236 933 b 325 1051 268 997 293 1019 l 256 1119 b 156 1000 212 1075 181 1045 b 127 856 131 954 127 905 l 127 131 b 156 -11 127 83 131 34 b 256 -130 181 -56 212 -86 l 325 -62 "},"`":{"x_min":173.609375,"x_max":415.28125,"ha":694,"o":"m 415 825 l 293 1037 l 173 1037 l 323 825 l 415 825 "},"U":{"x_min":129.171875,"x_max":819.453125,"ha":949,"o":"m 819 326 l 819 988 l 713 988 l 713 334 b 473 86 713 184 618 86 b 234 334 329 86 234 184 l 234 988 l 129 988 l 129 326 b 473 -8 129 129 273 -8 b 819 326 673 -8 819 129 "},"◊":{"x_min":93.0625,"x_max":808.328125,"ha":901,"o":"m 808 489 l 451 995 l 93 489 l 451 -16 l 808 489 m 695 489 l 451 135 l 205 489 l 451 840 l 695 489 "},"F":{"x_min":143.0625,"x_max":756.953125,"ha":806,"o":"m 756 894 l 756 988 l 143 988 l 143 0 l 248 0 l 248 436 l 681 436 l 681 530 l 248 530 l 248 894 l 756 894 "},"r":{"x_min":125,"x_max":580.5625,"ha":585,"o":"m 580 627 b 416 691 531 676 481 691 b 225 600 337 691 262 656 l 225 683 l 125 683 l 125 0 l 225 0 l 225 419 b 388 602 225 523 288 602 b 506 552 441 602 469 590 l 580 627 "},":":{"x_min":147.21875,"x_max":305.5625,"ha":415,"o":"m 305 479 b 226 558 305 522 269 558 b 147 479 183 558 147 522 b 226 400 147 436 183 400 b 305 479 269 400 305 436 m 305 75 b 226 154 305 118 269 154 b 147 75 183 154 147 118 b 226 -4 147 31 183 -4 b 305 75 269 -4 305 31 "},"x":{"x_min":45.828125,"x_max":618.0625,"ha":664,"o":"m 618 0 l 386 348 l 608 683 l 487 683 l 333 430 l 176 683 l 55 683 l 277 348 l 45 0 l 166 0 l 333 265 l 497 0 l 618 0 "},"*":{"x_min":93.0625,"x_max":565.28125,"ha":658,"o":"m 565 655 l 398 745 l 565 837 l 526 904 l 363 805 l 369 995 l 288 995 l 294 805 l 133 904 l 93 837 l 259 745 l 93 655 l 133 587 l 294 686 l 288 495 l 369 495 l 363 686 l 526 587 l 565 655 "},"†":{"x_min":102.78125,"x_max":737.5,"ha":840,"o":"m 737 618 l 737 706 l 468 706 l 468 988 l 368 988 l 368 706 l 102 706 l 102 618 l 368 618 l 368 0 l 468 0 l 468 618 l 737 618 "},"V":{"x_min":11.109375,"x_max":747.21875,"ha":758,"o":"m 747 988 l 636 988 l 379 188 l 122 988 l 11 988 l 336 0 l 422 0 l 747 988 "},"h":{"x_min":125,"x_max":662.5,"ha":781,"o":"m 662 0 l 662 439 b 416 691 662 593 570 691 b 225 608 340 691 275 665 l 225 989 l 125 989 l 125 0 l 225 0 l 225 422 b 395 603 225 540 293 603 b 562 422 498 603 562 541 l 562 0 l 662 0 "},"0":{"x_min":91.671875,"x_max":633.328125,"ha":725,"o":"m 633 263 l 633 565 b 362 837 633 729 516 837 b 91 565 208 837 91 729 l 91 263 b 362 -8 91 100 208 -8 b 633 263 516 -8 633 100 m 533 269 b 362 80 533 161 472 80 b 191 269 252 80 191 161 l 191 559 b 362 748 191 668 252 748 b 533 559 472 748 533 668 l 533 269 "},".":{"x_min":109.71875,"x_max":268.0625,"ha":378,"o":"m 268 75 b 188 154 268 118 231 154 b 109 75 145 154 109 118 b 188 -4 109 31 145 -4 b 268 75 231 -4 268 31 "},"”":{"x_min":122.21875,"x_max":480.5625,"ha":603,"o":"m 480 872 l 480 988 l 358 988 l 358 762 l 480 872 m 243 872 l 243 988 l 122 988 l 122 762 l 243 872 "},"@":{"x_min":100,"x_max":890.28125,"ha":990,"o":"m 890 -1 l 890 688 b 811 912 890 782 865 857 b 597 989 758 964 686 989 l 391 989 b 177 912 301 989 229 964 b 100 688 125 857 100 782 l 100 221 b 208 -12 100 98 123 49 l 276 55 b 197 223 212 102 197 135 l 197 691 b 252 849 197 767 211 807 b 404 905 293 889 338 905 l 584 905 b 738 849 650 905 700 888 b 793 691 779 807 793 764 l 793 582 b 606 670 745 641 687 670 b 415 584 526 670 455 638 b 358 330 372 527 358 452 b 419 74 358 203 372 132 b 608 -10 462 20 530 -10 b 794 76 693 -10 748 17 l 794 0 l 890 -1 m 793 330 b 625 76 793 201 770 76 b 456 330 479 76 456 201 b 625 584 456 459 479 584 b 793 330 770 584 793 459 "},"f":{"x_min":59.71875,"x_max":393.0625,"ha":436,"o":"m 393 602 l 393 679 l 247 679 l 247 805 b 338 905 247 868 275 905 l 393 905 l 393 991 l 320 991 b 147 808 204 991 147 909 l 147 679 l 59 679 l 59 602 l 147 602 l 147 0 l 247 0 l 247 602 l 393 602 "},";":{"x_min":147.21875,"x_max":305.5625,"ha":413,"o":"m 305 479 b 226 558 305 522 269 558 b 147 479 183 558 147 522 b 226 400 147 436 183 400 b 305 479 269 400 305 436 m 287 -90 l 287 122 l 165 122 l 165 -200 l 287 -90 "},"“":{"x_min":122.21875,"x_max":480.5625,"ha":603,"o":"m 480 872 l 480 1098 l 358 988 l 358 872 l 480 872 m 243 872 l 243 1098 l 122 988 l 122 872 l 243 872 "},"i":{"x_min":106.9375,"x_max":244.4375,"ha":351,"o":"m 244 940 b 175 1008 244 977 212 1008 b 106 940 137 1008 106 977 b 175 872 106 902 137 872 b 244 940 212 872 244 902 m 225 0 l 225 683 l 125 683 l 125 0 l 225 0 "},"6":{"x_min":70.828125,"x_max":661.109375,"ha":732,"o":"m 661 305 b 383 608 661 481 551 608 b 262 581 336 608 302 602 l 512 1010 l 406 1010 l 143 545 b 70 297 93 458 70 377 b 366 -8 70 113 184 -8 b 661 305 547 -8 661 124 m 561 299 b 365 76 561 165 483 76 b 170 299 247 76 170 165 b 365 524 170 435 247 524 b 561 299 493 524 561 422 "},"A":{"x_min":16.671875,"x_max":831.953125,"ha":849,"o":"m 831 0 l 469 988 l 380 988 l 16 0 l 129 0 l 208 223 l 640 223 l 719 0 l 831 0 m 609 315 l 240 315 l 426 837 l 609 315 "},"‘":{"x_min":122.21875,"x_max":243.0625,"ha":365,"o":"m 243 872 l 243 1098 l 122 988 l 122 872 l 243 872 "},"n":{"x_min":125,"x_max":662.5,"ha":781,"o":"m 662 0 l 662 437 b 591 628 662 516 640 580 b 416 691 550 669 490 691 b 225 608 340 691 273 664 l 225 683 l 125 683 l 125 0 l 225 0 l 225 421 b 394 603 225 540 291 603 b 562 421 497 603 562 541 l 562 0 l 662 0 "},"O":{"x_min":105.5625,"x_max":797.21875,"ha":903,"o":"m 797 494 b 704 894 797 704 797 801 b 451 997 637 961 550 997 b 198 894 352 997 265 961 b 105 494 105 801 105 704 b 198 94 105 284 105 187 b 451 -8 265 27 352 -8 b 704 94 550 -8 637 27 b 797 494 797 187 797 284 m 691 494 b 622 156 691 287 684 220 b 451 86 579 112 516 86 b 280 156 386 86 323 112 b 211 494 218 220 211 287 b 280 831 211 701 218 768 b 451 902 323 876 386 902 b 622 831 516 902 579 876 b 691 494 684 768 691 701 "},"3":{"x_min":52.78125,"x_max":633.328125,"ha":715,"o":"m 633 108 b 481 350 633 231 581 312 b 615 569 570 390 615 465 b 343 837 615 730 504 837 b 65 584 193 837 76 744 l 165 584 b 343 748 175 686 238 748 b 515 568 438 748 515 686 b 338 388 515 456 459 388 l 319 388 l 319 301 l 338 301 b 533 109 473 301 533 229 b 343 -80 533 -11 450 -80 b 152 90 248 -80 161 -33 l 52 90 b 343 -170 61 -88 187 -170 b 633 108 504 -170 633 -73 "},"]":{"x_min":61.109375,"x_max":306.9375,"ha":435,"o":"m 306 -102 l 306 1091 l 61 1091 l 61 1005 l 211 1005 l 211 -16 l 61 -16 l 61 -102 l 306 -102 "},"m":{"x_min":125,"x_max":1102.78125,"ha":1221,"o":"m 1102 0 l 1102 437 b 1029 628 1102 516 1077 580 b 852 691 987 668 926 691 b 627 578 756 691 680 653 b 418 691 586 653 512 691 b 225 608 341 691 273 664 l 225 683 l 125 683 l 125 0 l 225 0 l 225 421 b 395 603 225 540 293 603 b 563 421 498 603 563 541 l 563 0 l 663 0 l 663 432 b 834 603 663 540 734 603 b 1002 421 937 603 1002 541 l 1002 0 l 1102 0 "},"9":{"x_min":70.828125,"x_max":661.109375,"ha":732,"o":"m 661 532 b 365 837 661 715 547 837 b 70 523 184 837 70 704 b 348 220 70 347 180 220 b 469 247 395 220 429 226 l 219 -181 l 325 -181 l 588 283 b 661 532 638 370 661 451 m 561 529 b 366 304 561 393 484 304 b 170 529 238 304 170 407 b 366 752 170 663 248 752 b 561 529 484 752 561 663 "},"l":{"x_min":122.21875,"x_max":368.0625,"ha":413,"o":"m 368 0 l 368 86 l 313 86 b 222 186 244 86 222 119 l 222 988 l 122 988 l 122 181 b 295 0 122 77 176 0 l 368 0 "},"8":{"x_min":82.390625,"x_max":665.609375,"ha":747,"o":"m 665 272 b 517 512 665 387 600 465 b 647 731 594 556 647 629 b 374 997 647 886 530 997 b 100 731 217 997 100 886 b 231 512 100 629 153 556 b 82 272 147 465 82 387 b 374 -8 82 105 210 -8 b 665 272 537 -8 665 105 m 547 730 b 374 554 547 626 475 554 b 200 730 272 554 200 626 b 374 908 200 833 272 908 b 547 730 475 908 547 833 m 565 273 b 374 80 565 163 482 80 b 182 273 265 80 182 163 b 374 466 182 383 265 466 b 565 273 482 466 565 383 "},"p":{"x_min":125,"x_max":668.0625,"ha":757,"o":"m 668 342 b 584 632 668 448 654 562 b 418 691 548 668 487 691 b 225 603 343 691 280 675 l 225 683 l 125 683 l 125 -305 l 225 -305 l 225 81 b 418 -7 280 10 343 -7 b 584 51 487 -7 548 15 b 668 342 654 121 668 235 m 568 342 b 397 81 568 208 545 81 b 225 342 248 81 225 208 b 397 603 225 475 248 603 b 568 342 545 603 568 475 "},"4":{"x_min":50.375,"x_max":696.203125,"ha":751,"o":"m 696 41 l 696 133 l 569 133 l 569 418 l 471 418 l 471 133 l 155 133 l 523 873 l 417 873 l 50 133 l 50 41 l 471 41 l 471 -170 l 569 -170 l 569 41 l 696 41 "},"‡":{"x_min":102.78125,"x_max":737.5,"ha":840,"o":"m 737 -22 l 737 66 l 468 66 l 468 618 l 737 618 l 737 706 l 468 706 l 468 988 l 368 988 l 368 706 l 102 706 l 102 618 l 368 618 l 368 66 l 102 66 l 102 -22 l 368 -22 l 368 -305 l 468 -305 l 468 -22 l 737 -22 "},"R":{"x_min":143.0625,"x_max":834.71875,"ha":911,"o":"m 834 0 l 600 448 b 815 713 727 475 815 569 b 522 988 815 884 694 988 l 143 988 l 143 0 l 248 0 l 248 438 l 486 438 l 711 0 l 834 0 m 709 712 b 512 531 709 591 627 531 l 248 531 l 248 894 l 512 894 b 709 712 627 894 709 833 "},"o":{"x_min":88.890625,"x_max":647.21875,"ha":736,"o":"m 647 341 b 563 613 647 447 633 543 b 368 691 516 661 451 691 b 172 613 284 691 219 661 b 88 341 102 543 88 447 b 172 69 88 236 102 140 b 368 -8 219 22 284 -8 b 563 69 451 -8 516 22 b 647 341 633 140 647 236 m 547 341 b 493 130 547 265 543 180 b 368 80 461 98 416 80 b 244 130 319 80 276 98 b 188 341 194 180 188 265 b 244 552 188 418 194 502 b 368 602 276 584 319 602 b 493 552 416 602 461 584 b 547 341 543 502 547 418 "},"5":{"x_min":84.71875,"x_max":629.171875,"ha":718,"o":"m 629 166 b 547 432 629 259 619 359 b 376 494 508 471 450 494 b 198 426 298 494 237 469 l 198 740 l 608 740 l 608 829 l 108 829 l 108 309 l 198 309 b 362 407 218 368 276 407 b 529 166 505 407 529 287 b 475 -34 529 96 526 16 b 352 -80 445 -63 401 -80 b 184 73 248 -80 197 -24 l 84 73 b 154 -98 90 2 111 -53 b 352 -169 197 -141 266 -169 b 550 -95 440 -169 504 -141 b 629 166 620 -24 629 68 "}}}
